<?xml version="1.0" standalone="no"?>
<!DOCTYPE svg PUBLIC "-//W3C//DTD SVG 20010904//EN"
 "http://www.w3.org/TR/2001/REC-SVG-20010904/DTD/svg10.dtd">
<svg version="1.0" xmlns="http://www.w3.org/2000/svg"
 width="210.000000pt" height="244.000000pt" viewBox="0 0 210.000000 244.000000"
 preserveAspectRatio="xMidYMid meet">

<g transform="translate(0.000000,244.000000) scale(0.100000,-0.100000)"
fill="#000000" stroke="none">
<path d="M954 2382 l-81 -47 67 -97 67 -97 57 120 c31 66 56 124 56 129 0 11
-53 40 -72 40 -7 0 -49 -22 -94 -48z"/>
<path d="M1098 2240 c-51 -109 -64 -129 -80 -124 -10 3 -18 1 -18 -5 0 -27
-22 -4 -80 84 -34 52 -68 99 -75 105 -9 8 -117 -50 -421 -228 l-409 -238 0
-63 0 -62 250 -304 c137 -168 252 -302 255 -297 4 4 110 227 235 495 171 365
232 486 243 482 8 -3 20 -1 26 4 9 8 56 -54 172 -224 87 -128 159 -233 160
-232 1 1 58 107 128 236 105 191 125 236 114 246 -11 10 -354 212 -416 244
-22 11 -24 8 -84 -119z"/>
<path d="M1515 1840 c-71 -132 -133 -240 -137 -240 -4 0 -10 5 -14 11 -5 8 -9
8 -14 -1 -4 -7 -12 -10 -17 -7 -6 4 -79 107 -164 231 -85 123 -155 223 -157
222 -1 -2 -105 -223 -231 -492 -153 -325 -235 -489 -245 -489 -20 0 -29 -11
-21 -25 5 -8 11 -8 19 0 10 8 48 -33 160 -170 81 -99 149 -180 151 -180 2 0
112 200 245 443 231 425 243 444 270 444 27 0 49 -29 287 -378 142 -208 260
-379 263 -379 3 0 44 73 93 162 l87 162 -2 340 -3 340 -210 123 c-115 67 -214
123 -220 123 -5 0 -68 -108 -140 -240z"/>
<path d="M10 1135 l0 -520 111 -64 c60 -35 111 -62 113 -60 1 2 62 131 134
286 l132 282 -236 288 c-131 158 -241 292 -246 298 -4 5 -8 -225 -8 -510z"/>
<path d="M1119 1112 c-183 -340 -240 -437 -255 -437 -10 0 -24 -3 -29 -7 -6
-3 -72 69 -149 163 -76 93 -144 173 -150 178 -8 6 -50 -74 -140 -266 -70 -151
-127 -276 -125 -278 8 -7 334 -195 339 -195 3 0 52 86 109 191 78 143 107 189
118 184 9 -3 21 -1 28 5 9 7 65 -55 220 -245 l208 -254 41 24 c23 14 105 62
184 107 l143 83 106 195 c122 225 121 224 138 210 9 -8 14 -7 17 1 7 20 23 3
83 -85 37 -55 62 -83 71 -79 11 4 14 48 14 229 0 123 -2 224 -4 224 -3 0 -37
-61 -77 -135 -55 -104 -75 -133 -85 -125 -8 8 -14 8 -19 0 -3 -5 -9 -10 -14
-10 -4 0 -124 171 -266 380 -143 209 -262 379 -265 379 -3 0 -111 -196 -241
-437z"/>
<path d="M1850 632 c-35 -64 -77 -141 -93 -171 -36 -63 -49 -68 145 46 l128
75 -57 82 c-31 44 -57 82 -58 83 0 1 -30 -51 -65 -115z"/>
<path d="M750 434 c-56 -103 -98 -190 -93 -194 4 -3 95 -57 200 -119 l193
-111 104 61 105 61 -201 244 c-110 134 -202 244 -203 244 -2 0 -49 -84 -105
-186z"/>
</g>
</svg>
